<svg width="24" height="24" viewBox="0 0 24 24" fill="none" xmlns="http://www.w3.org/2000/svg">
<path fill-rule="evenodd" clip-rule="evenodd" d="M12.3829 9.13788C12.3829 7.76328 13.4973 6.64894 14.8719 6.64894C16.2465 6.64894 17.3608 7.76328 17.3608 9.13788C17.3608 10.5125 16.2465 11.6268 14.8719 11.6268C13.4973 11.6268 12.3829 10.5125 12.3829 9.13788ZM14.8719 7.79768C14.1317 7.79768 13.5317 8.39771 13.5317 9.13788C13.5317 9.87805 14.1317 10.4781 14.8719 10.4781C15.612 10.4781 16.2121 9.87805 16.2121 9.13788C16.2121 8.39771 15.612 7.79768 14.8719 7.79768ZM20.2595 16.2002C20.4241 15.8093 20.5574 15.4016 20.6563 14.98C21.1146 13.0264 21.1146 10.9932 20.6563 9.03952C19.9945 6.21818 17.7916 4.01526 14.9703 3.35346C13.0166 2.8952 10.9834 2.8952 9.02975 3.35346C6.20842 4.01526 4.0055 6.21818 3.3437 9.03951C2.88543 10.9932 2.88543 13.0264 3.3437 14.98C3.39229 15.1872 3.44919 15.391 3.51403 15.5911L4.11782 14.9874C6.30157 12.8041 9.84209 12.8041 12.0258 14.9874L13.7165 16.6778L14.1597 16.2347C15.8579 14.5369 18.5837 14.5568 20.2595 16.2002ZM19.701 17.2899L19.6765 17.2604C18.4761 15.8202 16.2978 15.7214 14.9719 17.047L14.5289 17.49L16.9422 19.9028C18.0581 19.2809 18.9993 18.3884 19.6794 17.3118C19.6868 17.3046 19.694 17.2973 19.701 17.2899ZM15.8264 20.4117L11.2136 15.7998C9.47848 14.065 6.66518 14.065 4.93003 15.7998L3.99195 16.7377C5.00173 18.6937 6.82731 20.1494 9.02975 20.6661C10.9834 21.1243 13.0166 21.1243 14.9703 20.6661C15.2626 20.5975 15.5484 20.5124 15.8264 20.4117Z" fill="#441AFF"/>
</svg>
