<svg width="22" height="20" viewBox="0 0 22 20" fill="none" xmlns="http://www.w3.org/2000/svg">
<path d="M20.6473 6.95044C21.1178 8.95626 21.1178 11.0437 20.6473 13.0496C19.9958 15.827 17.8271 17.9956 15.0497 18.6471L15.0497 1.35288C17.8271 2.00437 19.9958 4.17301 20.6473 6.95044Z" fill="white"/>
<path d="M3.35303 13.0496C4.00452 15.827 6.17316 17.9956 8.95058 18.6471C10.9564 19.1176 13.0439 19.1176 15.0497 18.6471M3.35303 6.95043C4.00452 4.17301 6.17316 2.00437 8.95058 1.35288C10.9564 0.882375 13.0439 0.882374 15.0497 1.35288M15.0497 18.6471C17.8271 17.9956 19.9958 15.827 20.6473 13.0496C21.1178 11.0437 21.1178 8.95626 20.6473 6.95044C19.9958 4.17301 17.8271 2.00437 15.0497 1.35288M15.0497 18.6471L15.0497 1.35288" stroke="white" stroke-width="1.5" stroke-linecap="round"/>
<path d="M1 9.76923H13M13 9.76923L8.63636 7M13 9.76923L8.63636 13" stroke="white" stroke-width="2" stroke-linecap="round" stroke-linejoin="round"/>
</svg>
