<svg width="53" height="54" viewBox="0 0 53 54" fill="none" xmlns="http://www.w3.org/2000/svg">
<rect x="-38" y="-37" width="90" height="90" rx="45" fill="white"/>
<rect x="-38" y="-37" width="90" height="90" rx="45" stroke="#441AFF" stroke-width="2"/>
<path d="M12.3529 24.8117L13.0823 24.6372L12.3529 24.8117ZM12.3529 18.833L13.0823 19.0075L12.3529 18.833ZM29.6471 18.833L28.9177 19.0075L29.6471 18.833ZM29.6471 24.8117L28.9177 24.6372L29.6471 24.8117ZM24.0496 30.2988L23.8815 29.5679L24.0496 30.2988ZM17.9504 30.2988L17.7824 31.0297L17.9504 30.2988ZM17.9504 13.3459L18.1185 14.0768L17.9504 13.3459ZM24.0496 13.3459L23.8815 14.0768L24.0496 13.3459ZM13.0823 24.6372C12.6392 22.7857 12.6392 20.859 13.0823 19.0075L11.6235 18.6584C11.1255 20.7394 11.1255 22.9053 11.6235 24.9863L13.0823 24.6372ZM28.9177 19.0075C29.3608 20.859 29.3608 22.7857 28.9177 24.6372L30.3765 24.9863C30.8745 22.9053 30.8745 20.7394 30.3765 18.6584L28.9177 19.0075ZM23.8815 29.5679C21.9863 30.0036 20.0137 30.0036 18.1185 29.5679L17.7824 31.0297C19.8988 31.5164 22.1012 31.5164 24.2176 31.0297L23.8815 29.5679ZM18.1185 14.0768C20.0137 13.6411 21.9863 13.6411 23.8815 14.0768L24.2176 12.615C22.1012 12.1283 19.8988 12.1283 17.7824 12.615L18.1185 14.0768ZM18.1185 29.5679C15.6123 28.9916 13.666 27.0765 13.0823 24.6372L11.6235 24.9863C12.3428 27.9922 14.7337 30.3287 17.7824 31.0297L18.1185 29.5679ZM24.2176 31.0297C27.2663 30.3287 29.6572 27.9922 30.3765 24.9863L28.9177 24.6372C28.334 27.0765 26.3877 28.9916 23.8815 29.5679L24.2176 31.0297ZM23.8815 14.0768C26.3877 14.6531 28.334 16.5682 28.9177 19.0075L30.3765 18.6584C29.6572 15.6525 27.2663 13.316 24.2176 12.615L23.8815 14.0768ZM17.7824 12.615C14.7337 13.316 12.3428 15.6525 11.6235 18.6584L13.0823 19.0075C13.666 16.5682 15.6123 14.6531 18.1185 14.0768L17.7824 12.615ZM23.8305 31C23.8305 29.5363 23.8322 28.5154 23.9378 27.7451C24.0403 26.998 24.2278 26.5993 24.5196 26.3132L23.4696 25.242C22.8474 25.852 22.5778 26.6223 22.4518 27.5413C22.3289 28.4372 22.3305 29.5795 22.3305 31H23.8305ZM29.3222 24.1316C27.8718 24.1316 26.7101 24.13 25.7998 24.25C24.8695 24.3726 24.0897 24.6341 23.4696 25.242L24.5196 26.3132C24.8135 26.0251 25.2264 25.8385 25.9958 25.7371C26.7852 25.6331 27.8302 25.6316 29.3222 25.6316V24.1316Z" fill="#441AFF"/>
<path d="M18 19H21M18 22H23" stroke="#441AFF" stroke-width="1.5" stroke-linecap="round"/>
</svg>
