<svg width="53" height="54" viewBox="0 0 53 54" fill="none" xmlns="http://www.w3.org/2000/svg">
<rect x="-38" y="-37" width="90" height="90" rx="45" fill="white"/>
<rect x="-38" y="-37" width="90" height="90" rx="45" stroke="#441AFF" stroke-width="2"/>
<path d="M14 29.1115C14 26.6984 15.6973 24.643 18.004 24.2627L18.2118 24.2284C20.0589 23.9239 21.9411 23.9239 23.7882 24.2284L23.996 24.2627C26.3027 24.643 28 26.6984 28 29.1115C28 30.1545 27.1815 31 26.1719 31H15.8281C14.8185 31 14 30.1545 14 29.1115Z" stroke="#441AFF" stroke-width="1.5"/>
<path d="M25.0834 16.9375C25.0834 19.1121 23.2552 20.875 21 20.875C18.7449 20.875 16.9167 19.1121 16.9167 16.9375C16.9167 14.7629 18.7449 13 21 13C23.2552 13 25.0834 14.7629 25.0834 16.9375Z" stroke="#441AFF" stroke-width="1.5"/>
</svg>
