<svg width="24" height="24" viewBox="0 0 24 24" fill="none" xmlns="http://www.w3.org/2000/svg">
<path d="M5.30769 7.89548C5.30769 5.74946 7.06411 4.00977 9.23077 4.00977C11.3974 4.00977 13.1538 5.74946 13.1538 7.89548C13.1538 10.0415 11.3974 11.7812 9.23077 11.7812C7.06411 11.7812 5.30769 10.0415 5.30769 7.89548Z" fill="#441AFF"/>
<path d="M6.75123 13.5359L6.91563 13.5099C8.44935 13.2675 10.0122 13.2675 11.5459 13.5099L11.7103 13.5359C13.8714 13.8775 15.4615 15.7238 15.4615 17.8914C15.4615 19.0613 14.504 20.0098 13.3228 20.0098H5.13874C3.95755 20.0098 3 19.0613 3 17.8914C3 15.7238 4.59016 13.8775 6.75123 13.5359Z" fill="#441AFF"/>
<path d="M14.7692 4.00977C14.3869 4.00977 14.0769 4.31677 14.0769 4.69548C14.0769 5.07419 14.3869 5.38119 14.7692 5.38119C16.1712 5.38119 17.3077 6.50688 17.3077 7.89548C17.3077 9.28408 16.1712 10.4098 14.7692 10.4098C14.3869 10.4098 14.0769 10.7168 14.0769 11.0955C14.0769 11.4742 14.3869 11.7812 14.7692 11.7812C16.9359 11.7812 18.6923 10.0415 18.6923 7.89548C18.6923 5.74946 16.9359 4.00977 14.7692 4.00977Z" fill="#441AFF"/>
<path d="M15.9149 13.5013C15.5326 13.5013 15.2226 13.8083 15.2226 14.1871C15.2226 14.5658 15.5326 14.8728 15.9149 14.8728H16.8086C16.8829 14.8728 16.9573 14.8786 17.0306 14.8902C18.5197 15.1256 19.6154 16.3978 19.6154 17.8914C19.6154 18.3039 19.2778 18.6383 18.8613 18.6383H16.9753C16.5929 18.6383 16.283 18.9453 16.283 19.3241C16.283 19.7028 16.5929 20.0098 16.9753 20.0098H18.8613C20.0425 20.0098 21 19.0613 21 17.8914C21 15.7238 19.4098 13.8775 17.2488 13.5359C17.1032 13.5129 16.9559 13.5013 16.8086 13.5013H15.9149Z" fill="#441AFF"/>
</svg>
