<svg width="48" height="48" viewBox="0 0 48 48" fill="none" xmlns="http://www.w3.org/2000/svg">
<g clip-path="url(#clip0_435_3015)">
<path d="M41 29.8199V18.22C41 17.1 40.7 15.98 40.14 15.02C39.56 14.04 38.74 13.24 37.76 12.7L27.14 6.83997C26.2 6.29997 25.12 6.02002 24.02 6.02002C22.92 6.02002 21.84 6.29997 20.9 6.83997L10.28 12.7C9.30003 13.24 8.48004 14.04 7.88004 15.02C7.30004 15.98 7.02002 17.1 7.02002 18.22V29.8199C7.02002 30.9399 7.32004 32.04 7.88004 33.02C8.48004 33.98 9.30003 34.78 10.28 35.34L20.9 41.2C21.84 41.74 22.92 42.02 24.02 42.02C25.12 42.02 26.2 41.74 27.14 41.2L37.76 35.34C38.74 34.8 39.56 34 40.14 33.04C40.72 32.08 41 30.98 41 29.86V29.8199Z" fill="#FF6262" stroke="#FF6262" stroke-width="1.5" stroke-miterlimit="10"/>
<path d="M24 14.58V25.16Z" fill="white"/>
<path d="M24 14.58V25.16" stroke="white" stroke-width="1.5" stroke-linecap="round" stroke-linejoin="round"/>
<path d="M25.46 31.5C25.46 32.3038 24.8039 32.96 24 32.96C23.1962 32.96 22.54 32.3038 22.54 31.5C22.54 30.6962 23.1962 30.04 24 30.04C24.8039 30.04 25.46 30.6962 25.46 31.5Z" fill="white" stroke="white"/>
</g>
<defs>
<clipPath id="clip0_435_3015">
<rect width="48" height="48" fill="white"/>
</clipPath>
</defs>
</svg>
