<svg width="75" height="152" viewBox="0 0 75 152" fill="none" xmlns="http://www.w3.org/2000/svg">
<path d="M3 125.5C8.49976 146.5 23.3002 149.536 32 149.5C40.4719 149.372 52 146 60.5 127.5V77.5C43 84.5 41.5 85 32 85C21.5 85 16 84 3 78V125.5Z" fill="url(#paint0_linear_581_2138)"/>
<g filter="url(#filter0_f_581_2138)">
<path d="M36.5 85L41.5 83.5L49 82L60 78.5L62.5 90.5L60.5 105L47 102.5L38.5 99L36.5 92.5V85Z" fill="url(#paint1_linear_581_2138)"/>
</g>
<g filter="url(#filter1_f_581_2138)">
<path d="M19.5 83H24.5L31.5 84L41 83L40 92V96L30 106L21.5 102.5L19.5 96V83Z" fill="url(#paint2_linear_581_2138)" fill-opacity="0.72"/>
</g>
<g filter="url(#filter2_f_581_2138)">
<path d="M46.5 135.5V120L41.5 103.5L50.5 100L60.5 101L61.5 116.5L60.5 123.5H53L46.5 135.5Z" fill="url(#paint3_linear_581_2138)"/>
</g>
<g filter="url(#filter3_f_581_2138)">
<path d="M36.5 85.5L47.1667 83.5L50.1667 82.5L54 81.5L51.6667 87L46 89H36L36.5 85.5Z" fill="#D28BA1" fill-opacity="0.61"/>
</g>
<g filter="url(#filter4_f_581_2138)">
<path d="M3 78.5L13 83V112L7 116.5L4 125.5L3 116.5V78.5Z" fill="url(#paint4_linear_581_2138)"/>
</g>
<path d="M3.20215 27.5003C8.7019 6.50032 23.5024 3.46392 32.2021 3.50032C40.6741 3.62814 53.7019 4.5 60.7021 25.5V75.5003C50.2019 80.0003 41.7019 82.5003 32.2019 82.5003C21.7019 82.5003 9.2019 79.5003 3.20215 75.0003V27.5003Z" fill="url(#paint5_radial_581_2138)"/>
<g filter="url(#filter5_f_581_2138)">
<path d="M20.8951 14.3815C21.6811 12.7747 20.9572 10.7642 19.1954 11.0737C18.4353 11.2073 17.6348 11.4925 16.8117 11.9279C14.7466 13.0206 12.6479 15.0021 10.8227 17.5825C8.99756 20.1629 7.54177 23.2066 6.66837 26.2683C6.29225 27.5869 6.03264 28.8789 5.89241 30.1104C5.67516 32.0183 7.82624 32.802 9.2066 31.4672C9.7806 30.9121 10.0201 30.1069 10.0125 29.3085C10.0026 28.2579 10.1742 27.0844 10.5202 25.8713C11.0138 24.1409 11.8366 22.4205 12.8682 20.9621C13.8998 19.5037 15.086 18.3838 16.2532 17.7662C17.8148 16.94 20.0039 16.2034 20.7802 14.6163L20.8951 14.3815Z" fill="white"/>
</g>
<path d="M1.5 74V122.5C2.5 134.5 13.5059 150.461 31.5 150C51 149.5 61 134.5 61.5 122.5V74" stroke="url(#paint6_linear_581_2138)" stroke-opacity="0.75" stroke-width="3"/>
<path d="M1.5 75C12.5092 80.8667 22.0772 84 31.7752 84C42.2339 84 51.5917 80.3333 61.5 75" stroke="url(#paint7_linear_581_2138)" stroke-opacity="0.75" stroke-width="3" stroke-linecap="round"/>
<g filter="url(#filter6_f_581_2138)">
<path d="M2.49878 73C13.1279 67.1333 22.3655 65 31.7288 65C41.8264 65 50.8611 67.6667 60.4273 73" stroke="url(#paint8_linear_581_2138)" stroke-opacity="0.78" stroke-width="3" stroke-linecap="round"/>
</g>
<path d="M1.5 75V44.5108V29.5108C1.5 22.0108 8.49137 2.63241 31.463 2.01078C49.9402 1.51078 61.4261 18.5108 61.4261 29.5108C61.4261 40.5108 61.6665 59 61.5 75" stroke="url(#paint9_linear_581_2138)" stroke-width="3"/>
<path opacity="0.8" d="M20.5 27C17.7386 27 15.5 29.2386 15.5 32V60C15.5 62.7614 17.7386 65 20.5 65H42.5C45.2614 65 47.5 62.7614 47.5 60V32C47.5 29.2386 45.2614 27 42.5 27H20.5Z" fill="url(#paint10_linear_581_2138)" stroke="url(#paint11_radial_581_2138)" stroke-width="3"/>
<path opacity="0.8" d="M28.7 40.3363C26.7 37.5661 28.7 34.4001 31.5 34.0044C34.9693 33.8324 36.3 39.2164 35.5 40M28.7 40.3363C29.9 41.5235 29.5 43.5 29.5 43.5M28.7 40.3363C26.6999 37.1703 22.6999 39.149 21.5 41.5235C21.5 43.1065 23.5 45.5 27.5 45.5M28.7 40.3363C29.6794 41.8866 31.8315 41.7132 32.2258 41.8866M33.1 41.8866L35.5 40M33.1 41.8866C33.1 41.8866 32.274 41.9078 32.2258 41.8866M33.1 41.8866L33.9 43.1065M35.5 40C37.1 38.8056 39.2009 38.6374 41.5 40.732C40.923 45.483 39.6307 46.5984 35.9 46.2724M35.5 40C34.566 40.6972 33.5769 41.5117 33.9 43.1065M35.9 46.2724C34.634 45.376 34.3 45.0808 33.9 43.1065M35.9 46.2724C38.6685 48.838 38.8857 50.2223 37.1 52.6043C34.7547 53.5992 31.9 51.417 31.9 49.0426M35.9 46.2724L34.3 45.8722L32.3 46.2724M33.9 43.1065L34.3 45.0808L32.3 46.2724M31.9 49.0426C31.5392 51.7425 29.9 53 26.7 53C22.4679 51.1312 24.3 45.9001 27.5 45.5M31.9 49.0426L32 47.5L32.3 46.2724M31.9 49.0426L31.5 47.0595L30.7 46.2724M32.3 46.2724L30.7 46.2724M27.5 45.5L29.5 43.5M27.5 45.5L29 45.0808L30.7 46.2724M30.7 46.2724C29.9 45.4765 29.1 45.083 29.5 43.5M29.5 43.5C29.9 42.3128 29.9 41.5235 32.2258 41.8866" stroke="url(#paint12_linear_581_2138)" stroke-width="2"/>
<path d="M23.5 59.5H28.5" stroke="url(#paint13_linear_581_2138)" stroke-opacity="0.5" stroke-width="2" stroke-linecap="round"/>
<path d="M33.5 59.5H40.5" stroke="url(#paint14_linear_581_2138)" stroke-opacity="0.5" stroke-width="2" stroke-linecap="round"/>
<defs>
<filter id="filter0_f_581_2138" x="24.5" y="66.5" width="50" height="50.5" filterUnits="userSpaceOnUse" color-interpolation-filters="sRGB">
<feFlood flood-opacity="0" result="BackgroundImageFix"/>
<feBlend mode="normal" in="SourceGraphic" in2="BackgroundImageFix" result="shape"/>
<feGaussianBlur stdDeviation="6" result="effect1_foregroundBlur_581_2138"/>
</filter>
<filter id="filter1_f_581_2138" x="7.5" y="71" width="45.5" height="47" filterUnits="userSpaceOnUse" color-interpolation-filters="sRGB">
<feFlood flood-opacity="0" result="BackgroundImageFix"/>
<feBlend mode="normal" in="SourceGraphic" in2="BackgroundImageFix" result="shape"/>
<feGaussianBlur stdDeviation="6" result="effect1_foregroundBlur_581_2138"/>
</filter>
<filter id="filter2_f_581_2138" x="29.5" y="88" width="44" height="59.5" filterUnits="userSpaceOnUse" color-interpolation-filters="sRGB">
<feFlood flood-opacity="0" result="BackgroundImageFix"/>
<feBlend mode="normal" in="SourceGraphic" in2="BackgroundImageFix" result="shape"/>
<feGaussianBlur stdDeviation="6" result="effect1_foregroundBlur_581_2138"/>
</filter>
<filter id="filter3_f_581_2138" x="32" y="77.5" width="26" height="15.5" filterUnits="userSpaceOnUse" color-interpolation-filters="sRGB">
<feFlood flood-opacity="0" result="BackgroundImageFix"/>
<feBlend mode="normal" in="SourceGraphic" in2="BackgroundImageFix" result="shape"/>
<feGaussianBlur stdDeviation="2" result="effect1_foregroundBlur_581_2138"/>
</filter>
<filter id="filter4_f_581_2138" x="0.5" y="76" width="15" height="52" filterUnits="userSpaceOnUse" color-interpolation-filters="sRGB">
<feFlood flood-opacity="0" result="BackgroundImageFix"/>
<feBlend mode="normal" in="SourceGraphic" in2="BackgroundImageFix" result="shape"/>
<feGaussianBlur stdDeviation="1.25" result="effect1_foregroundBlur_581_2138"/>
</filter>
<filter id="filter5_f_581_2138" x="3.3772" y="8.54187" width="20.3337" height="26.0912" filterUnits="userSpaceOnUse" color-interpolation-filters="sRGB">
<feFlood flood-opacity="0" result="BackgroundImageFix"/>
<feBlend mode="normal" in="SourceGraphic" in2="BackgroundImageFix" result="shape"/>
<feGaussianBlur stdDeviation="1.25" result="effect1_foregroundBlur_581_2138"/>
</filter>
<filter id="filter6_f_581_2138" x="0.498535" y="63" width="61.929" height="12.0002" filterUnits="userSpaceOnUse" color-interpolation-filters="sRGB">
<feFlood flood-opacity="0" result="BackgroundImageFix"/>
<feBlend mode="normal" in="SourceGraphic" in2="BackgroundImageFix" result="shape"/>
<feGaussianBlur stdDeviation="0.25" result="effect1_foregroundBlur_581_2138"/>
</filter>
<linearGradient id="paint0_linear_581_2138" x1="43.5" y1="154" x2="7.5" y2="86.5" gradientUnits="userSpaceOnUse">
<stop stop-color="#64BBD9"/>
<stop offset="0.188232" stop-color="#6CA1C5"/>
<stop offset="0.364423" stop-color="#93B5C5"/>
<stop offset="0.802702" stop-color="#DBD2BF"/>
<stop offset="1" stop-color="#FDF0CC"/>
</linearGradient>
<linearGradient id="paint1_linear_581_2138" x1="62.5" y1="75.5" x2="37.5" y2="88.5" gradientUnits="userSpaceOnUse">
<stop stop-color="#B184AC"/>
<stop offset="0.263235" stop-color="#9C84B1"/>
<stop offset="0.77" stop-color="#A09AB3"/>
<stop offset="1" stop-color="#CB94A9"/>
</linearGradient>
<linearGradient id="paint2_linear_581_2138" x1="41.5" y1="89.5" x2="30" y2="91.5" gradientUnits="userSpaceOnUse">
<stop stop-color="#D6A0A9"/>
<stop offset="1" stop-color="#EDD0BC"/>
</linearGradient>
<linearGradient id="paint3_linear_581_2138" x1="59" y1="117.5" x2="48.5" y2="140" gradientUnits="userSpaceOnUse">
<stop stop-color="#7F95C4"/>
<stop offset="0.5" stop-color="#7099C4"/>
<stop offset="1" stop-color="#6AA0C4"/>
</linearGradient>
<linearGradient id="paint4_linear_581_2138" x1="8.25" y1="78.5" x2="8.25" y2="122" gradientUnits="userSpaceOnUse">
<stop stop-color="#F9FEFF"/>
<stop offset="0.5" stop-color="#FAFDEC"/>
<stop offset="1" stop-color="#FBFBE2"/>
</linearGradient>
<radialGradient id="paint5_radial_581_2138" cx="0" cy="0" r="1" gradientUnits="userSpaceOnUse" gradientTransform="translate(65.4997 6.00032) rotate(124.38) scale(80.576 78.9312)">
<stop stop-color="#FFD278"/>
<stop offset="0.155" stop-color="#FAE376"/>
<stop offset="0.489198" stop-color="#FCE47D"/>
<stop offset="0.661598" stop-color="#FBFCB6"/>
<stop offset="0.942955" stop-color="#FDF993"/>
</radialGradient>
<linearGradient id="paint6_linear_581_2138" x1="31.5" y1="74" x2="31.5" y2="150.01" gradientUnits="userSpaceOnUse">
<stop stop-color="#591B3B"/>
<stop offset="0.27" stop-color="#241E4C"/>
<stop offset="1" stop-color="#1F1648"/>
</linearGradient>
<linearGradient id="paint7_linear_581_2138" x1="61.5" y1="80" x2="1.5" y2="80" gradientUnits="userSpaceOnUse">
<stop stop-color="#74122E"/>
<stop offset="0.504055" stop-color="#B44657"/>
<stop offset="1" stop-color="#591B3B"/>
</linearGradient>
<linearGradient id="paint8_linear_581_2138" x1="2.49878" y1="69" x2="60.4273" y2="69" gradientUnits="userSpaceOnUse">
<stop stop-color="#E55848"/>
<stop offset="1" stop-color="#E36E39"/>
</linearGradient>
<linearGradient id="paint9_linear_581_2138" x1="31.5" y1="2" x2="13.5" y2="81" gradientUnits="userSpaceOnUse">
<stop stop-color="#D94F4A"/>
<stop offset="0.517889" stop-color="#C25754"/>
<stop offset="1" stop-color="#571C42"/>
</linearGradient>
<linearGradient id="paint10_linear_581_2138" x1="43.5" y1="29.5" x2="15.5" y2="65" gradientUnits="userSpaceOnUse">
<stop stop-color="#FCF9A7"/>
<stop offset="0.49" stop-color="#FDFFDC"/>
<stop offset="1" stop-color="#FDFFDC"/>
</linearGradient>
<radialGradient id="paint11_radial_581_2138" cx="0" cy="0" r="1" gradientUnits="userSpaceOnUse" gradientTransform="translate(21.5 33) rotate(55.1543) scale(48.13 235.861)">
<stop offset="0.165" stop-color="#B33021"/>
<stop offset="0.725" stop-color="#742B23"/>
<stop offset="1" stop-color="#411813"/>
</radialGradient>
<linearGradient id="paint12_linear_581_2138" x1="21.5" y1="34" x2="41.2445" y2="58.3475" gradientUnits="userSpaceOnUse">
<stop stop-color="#C03424"/>
<stop offset="1" stop-color="#411813"/>
</linearGradient>
<linearGradient id="paint13_linear_581_2138" x1="26" y1="58.5" x2="26" y2="61" gradientUnits="userSpaceOnUse">
<stop stop-color="#C03424"/>
<stop offset="1" stop-color="#FDFFDC"/>
</linearGradient>
<linearGradient id="paint14_linear_581_2138" x1="37" y1="58.5" x2="37" y2="61.5" gradientUnits="userSpaceOnUse">
<stop stop-color="#C03424"/>
<stop offset="1" stop-color="#FDFFDC"/>
</linearGradient>
</defs>
</svg>
