<svg width="24" height="24" viewBox="0 0 24 24" fill="none" xmlns="http://www.w3.org/2000/svg">
<path fill-rule="evenodd" clip-rule="evenodd" d="M14.9703 3.35346C13.0166 2.8952 10.9834 2.8952 9.02975 3.35346C6.20842 4.01526 4.0055 6.21818 3.3437 9.03951C2.88543 10.9932 2.88543 13.0264 3.3437 14.98C4.0055 17.8014 6.20842 20.0043 9.02975 20.6661C10.9834 21.1243 13.0166 21.1243 14.9703 20.6661C17.7916 20.0043 19.9945 17.8014 20.6563 14.98C21.1146 13.0264 21.1146 10.9932 20.6563 9.03952C19.9945 6.21818 17.7916 4.01526 14.9703 3.35346ZM8.55377 9.13788C8.55377 8.82066 8.81093 8.56351 9.12815 8.56351H12.9573C13.2745 8.56351 13.5317 8.82066 13.5317 9.13788C13.5317 9.4551 13.2745 9.71225 12.9573 9.71225H9.12815C8.81093 9.71225 8.55377 9.4551 8.55377 9.13788ZM8.55377 12.0097C8.55377 11.6925 8.81093 11.4354 9.12815 11.4354H14.8719C15.1891 11.4354 15.4462 11.6925 15.4462 12.0097C15.4462 12.327 15.1891 12.5841 14.8719 12.5841H9.12815C8.81093 12.5841 8.55377 12.327 8.55377 12.0097ZM8.55377 14.8816C8.55377 14.5644 8.81093 14.3072 9.12815 14.3072H12C12.3172 14.3072 12.5744 14.5644 12.5744 14.8816C12.5744 15.1988 12.3172 15.456 12 15.456H9.12815C8.81093 15.456 8.55377 15.1988 8.55377 14.8816Z" fill="#441AFF"/>
</svg>
