<svg width="40" height="40" viewBox="0 0 40 40" fill="none" xmlns="http://www.w3.org/2000/svg">
<rect x="0.75" y="0.75" width="38.5" height="38.5" rx="19.25" fill="white"/>
<rect x="0.75" y="0.75" width="38.5" height="38.5" rx="19.25" stroke="#441AFF" stroke-width="1.5"/>
<path d="M13 27.1115C13 24.6984 14.6973 22.643 17.004 22.2627L17.2118 22.2284C19.0589 21.9239 20.9411 21.9239 22.7882 22.2284L22.996 22.2627C25.3027 22.643 27 24.6984 27 27.1115C27 28.1545 26.1815 29 25.1719 29H14.8281C13.8185 29 13 28.1545 13 27.1115Z" stroke="#363853" stroke-width="1.5"/>
<path d="M24.0834 14.9375C24.0834 17.1121 22.2552 18.875 20 18.875C17.7449 18.875 15.9167 17.1121 15.9167 14.9375C15.9167 12.7629 17.7449 11 20 11C22.2552 11 24.0834 12.7629 24.0834 14.9375Z" stroke="#363853" stroke-width="1.5"/>
</svg>
