<svg width="53" height="54" viewBox="0 0 53 54" fill="none" xmlns="http://www.w3.org/2000/svg">
<rect x="-38" y="-37" width="90" height="90" rx="45" fill="white"/>
<rect x="-38" y="-37" width="90" height="90" rx="45" stroke="#441AFF" stroke-width="2"/>
<path d="M12 28.433C12 26.4308 13.4549 24.7254 15.432 24.4098L15.6101 24.3814C17.1934 24.1287 18.8066 24.1287 20.3899 24.3814L20.568 24.4098C22.5451 24.7254 24 26.4308 24 28.433C24 29.2984 23.2984 30 22.433 30H13.567C12.7016 30 12 29.2984 12 28.433Z" stroke="#441AFF" stroke-width="1.5"/>
<path d="M21.5 17.5C21.5 19.433 19.933 21 18 21C16.067 21 14.5 19.433 14.5 17.5C14.5 15.567 16.067 14 18 14C19.933 14 21.5 15.567 21.5 17.5Z" stroke="#441AFF" stroke-width="1.5"/>
<path d="M24 21C25.933 21 27.5 19.433 27.5 17.5C27.5 15.567 25.933 14 24 14M26.3899 30H28.433C29.2984 30 30 29.2984 30 28.433C30 26.4308 28.5451 24.7254 26.568 24.4098V24.4098C26.4494 24.3909 26.3293 24.3814 26.2093 24.3814C25.8895 24.3814 25.7902 24.3814 25.2412 24.3814" stroke="#441AFF" stroke-width="1.5" stroke-linecap="round"/>
</svg>
