<svg width="174" height="35" viewBox="0 0 174 35" fill="none" xmlns="http://www.w3.org/2000/svg">
<path d="M25.688 31.888C25.72 32.208 25.688 32.512 25.592 32.8C25.528 32.992 25.432 33.152 25.304 33.28C25.208 33.408 25.08 33.536 24.92 33.664C24.632 33.856 24.28 34.032 23.864 34.192C23.608 34.256 23.352 34.304 23.096 34.336C22.872 34.4 22.632 34.4 22.376 34.336C21.864 34.304 21.416 34.112 21.032 33.76C20.488 33.312 20.04 32.816 19.688 32.272C19.528 32.016 19.352 31.728 19.16 31.408C18.968 31.088 18.792 30.752 18.632 30.4L13.304 20.272C13.048 20.272 12.792 20.288 12.536 20.32C12.28 20.32 12.024 20.336 11.768 20.368C11.096 20.432 10.456 20.448 9.848 20.416C9.272 20.384 8.664 20.384 8.024 20.416H7.112V29.104C7.112 29.36 7.096 29.6 7.064 29.824C7.064 30.048 7.064 30.288 7.064 30.544C7.064 30.704 7.048 30.912 7.016 31.168C7.016 31.424 7 31.664 6.968 31.888C6.904 32.24 6.76 32.608 6.536 32.992C6.312 33.344 6.008 33.648 5.624 33.904C4.952 34.32 4.136 34.432 3.176 34.24C2.76 34.144 2.36 33.984 1.976 33.76C1.848 33.664 1.736 33.552 1.64 33.424C1.544 33.264 1.464 33.104 1.4 32.944C1.336 32.784 1.272 32.624 1.208 32.464C1.176 32.272 1.128 32.096 1.064 31.936C0.968 31.616 0.92 31.312 0.92 31.024V3.76C0.92 3.568 0.92 3.376 0.92 3.184C0.952 2.96 0.984 2.768 1.016 2.608C1.048 2.256 1.16 1.904 1.352 1.552C1.448 1.168 1.608 0.895999 1.832 0.735999C2.024 0.543998 2.312 0.383998 2.696 0.256C3.112 0.0959997 3.704 0.0319996 4.472 0.0639992C5.912 0.0959988 7.336 0.111999 8.744 0.111999C10.152 0.111999 11.56 0.143998 12.968 0.207997C13.896 0.271998 14.872 0.383999 15.896 0.543999C16.952 0.671999 17.928 0.911999 18.824 1.264C19.4 1.488 19.928 1.712 20.408 1.936C21.016 2.288 21.496 2.624 21.848 2.944C22.968 3.968 23.816 5.2 24.392 6.64C24.968 8.08 25.256 9.536 25.256 11.008C25.256 12.736 24.84 14.32 24.008 15.76C23.208 17.2 21.912 18.272 20.12 18.976C20.056 19.04 19.96 19.088 19.832 19.12C19.736 19.12 19.656 19.136 19.592 19.168L24.008 28.048L24.44 28.816C24.504 28.944 24.584 29.088 24.68 29.248C24.776 29.408 24.856 29.568 24.92 29.728C25.016 29.888 25.096 30.064 25.16 30.256C25.256 30.448 25.352 30.624 25.448 30.784C25.544 31.232 25.624 31.6 25.688 31.888ZM13.688 14.8C14.264 14.8 14.808 14.704 15.32 14.512C15.864 14.288 16.344 14 16.76 13.648C17.208 13.296 17.576 12.896 17.864 12.448C18.152 11.968 18.312 11.456 18.344 10.912C18.472 9.312 18.056 8.128 17.096 7.36C16.136 6.56 14.872 6.128 13.304 6.064C12.376 6 11.352 5.968 10.232 5.968C9.144 5.968 8.104 5.968 7.112 5.968C7.144 7.28 7.144 8.624 7.112 10C7.112 11.344 7.112 12.944 7.112 14.8H13.688ZM46.1686 27.424C46.5526 27.328 46.9366 27.264 47.3206 27.232C47.7366 27.2 48.1046 27.248 48.4246 27.376C48.7766 27.504 49.0646 27.728 49.2886 28.048C49.5126 28.336 49.6246 28.752 49.6246 29.296C49.6246 29.68 49.5286 30.048 49.3366 30.4C49.1446 30.752 48.9046 31.072 48.6166 31.36C48.3286 31.648 48.0086 31.904 47.6566 32.128C47.3046 32.32 46.9686 32.48 46.6486 32.608C45.7206 33.024 44.6486 33.344 43.4326 33.568C42.2486 33.792 41.0166 33.872 39.7366 33.808C38.0086 33.744 36.3446 33.408 34.7446 32.8C33.1766 32.16 31.9446 31.12 31.0486 29.68C30.2166 28.272 29.7206 26.704 29.5606 24.976C29.4006 23.248 29.4806 21.616 29.8006 20.08C30.1526 18.224 30.7446 16.72 31.5766 15.568C32.4406 14.384 33.4646 13.44 34.6486 12.736C36.0886 11.904 37.7046 11.472 39.4966 11.44C41.2886 11.408 43.0006 11.76 44.6326 12.496C45.7206 12.976 46.6966 13.632 47.5606 14.464C48.4246 15.264 49.0806 16.24 49.5286 17.392C49.6566 17.68 49.7526 18.032 49.8166 18.448C49.9126 18.864 49.9766 19.312 50.0086 19.792C50.0406 20.24 50.0406 20.688 50.0086 21.136C49.9766 21.584 49.8966 21.984 49.7686 22.336C49.5766 22.912 49.3366 23.36 49.0486 23.68C48.7606 24 48.3926 24.24 47.9446 24.4C47.4966 24.56 46.9526 24.672 46.3126 24.736C45.7046 24.768 44.9686 24.8 44.1046 24.832C43.3366 24.864 42.6166 24.88 41.9446 24.88C41.2726 24.88 40.5846 24.88 39.8806 24.88C39.1766 24.848 38.4406 24.832 37.6726 24.832C36.9366 24.8 36.1046 24.768 35.1766 24.736C35.0806 25.376 35.1606 25.936 35.4166 26.416C35.7046 26.864 36.0886 27.248 36.5686 27.568C37.0486 27.856 37.5926 28.08 38.2006 28.24C38.8086 28.4 39.4006 28.496 39.9766 28.528C41.0646 28.592 42.1046 28.512 43.0966 28.288C44.0886 28.032 45.1126 27.744 46.1686 27.424ZM44.1046 18.112C43.4966 17.408 42.8566 16.896 42.1846 16.576C41.6726 16.352 41.1286 16.256 40.5526 16.288C40.0086 16.288 39.4806 16.368 38.9686 16.528C38.0406 16.752 37.2566 17.232 36.6166 17.968C36.5526 18.032 36.4406 18.192 36.2806 18.448C36.1206 18.672 35.9606 18.912 35.8006 19.168C35.6726 19.424 35.5766 19.664 35.5126 19.888C35.4486 20.112 35.4806 20.224 35.6086 20.224H45.0166C44.9846 19.776 44.9046 19.408 44.7766 19.12C44.6486 18.8 44.4246 18.464 44.1046 18.112ZM79.9048 22.816C79.9688 23.84 80.0008 24.816 80.0008 25.744C80.0008 26.64 79.9688 27.6 79.9048 28.624C79.9048 29.008 79.9048 29.44 79.9048 29.92C79.9048 30.4 79.8728 30.864 79.8088 31.312C79.7448 31.76 79.6328 32.176 79.4728 32.56C79.3128 32.944 79.0728 33.248 78.7528 33.472C78.3688 33.728 77.9368 33.904 77.4568 34C76.9768 34.064 76.5288 34.032 76.1128 33.904C75.6968 33.776 75.3288 33.536 75.0088 33.184C74.7208 32.832 74.5608 32.336 74.5288 31.696C74.4328 30.224 74.3848 28.752 74.3848 27.28C74.3848 26.544 74.3688 25.84 74.3368 25.168C74.3368 24.496 74.3528 23.552 74.3848 22.336C74.3848 21.728 74.3368 21.04 74.2408 20.272C74.1448 19.472 73.9048 18.912 73.5208 18.592C73.2328 18.336 72.9128 18.192 72.5608 18.16C72.2088 18.096 71.8568 18.128 71.5048 18.256C71.1848 18.384 70.8968 18.624 70.6408 18.976C70.3848 19.296 70.2088 19.712 70.1128 20.224C70.1128 20.64 70.0968 21.072 70.0648 21.52C70.0648 21.936 70.0808 22.336 70.1128 22.72C70.1448 23.744 70.1608 24.72 70.1608 25.648C70.1608 26.544 70.1448 27.504 70.1128 28.528C70.0808 28.944 70.0648 29.392 70.0648 29.872C70.0968 30.352 70.0968 30.832 70.0648 31.312C70.0328 31.76 69.9368 32.176 69.7768 32.56C69.6488 32.944 69.4088 33.248 69.0568 33.472C68.6728 33.728 68.2568 33.888 67.8088 33.952C67.3928 33.984 66.9928 33.92 66.6088 33.76C66.2568 33.568 65.9368 33.28 65.6488 32.896C65.3928 32.512 65.2488 32 65.2168 31.36C65.1528 30.624 65.1048 29.952 65.0728 29.344C65.0728 28.704 65.0728 28.032 65.0728 27.328C65.0728 26.592 65.0888 25.84 65.1208 25.072C65.1528 24.272 65.1368 23.504 65.0728 22.768C65.0728 22.544 65.0568 22.288 65.0248 22C65.0248 21.68 65.0088 21.36 64.9768 21.04C64.9768 20.72 64.9448 20.416 64.8808 20.128C64.8488 19.808 64.7848 19.552 64.6888 19.36C64.4328 18.912 63.9688 18.624 63.2968 18.496C62.6568 18.368 62.1128 18.416 61.6648 18.64C61.2168 18.864 60.8808 19.152 60.6568 19.504C60.4328 19.856 60.2728 20.24 60.1768 20.656C60.0808 21.072 60.0328 21.52 60.0328 22C60.0328 22.448 60.0328 22.88 60.0328 23.296C60.0328 25.376 60.0328 27.184 60.0328 28.72C60.0648 30.224 59.9048 31.44 59.5528 32.368C59.3928 32.848 59.0568 33.216 58.5448 33.472C58.0648 33.728 57.5368 33.856 56.9608 33.856C56.4168 33.856 55.9048 33.728 55.4248 33.472C54.9448 33.216 54.6248 32.816 54.4648 32.272C54.3688 31.92 54.2728 31.424 54.1768 30.784C54.1128 30.112 54.0648 29.376 54.0328 28.576C54.0008 27.776 53.9848 26.976 53.9848 26.176C53.9848 25.344 53.9848 24.592 53.9848 23.92V17.008C53.9528 16.272 53.9368 15.472 53.9368 14.608C53.9368 13.744 54.0648 12.96 54.3208 12.256C54.5448 11.648 54.8968 11.264 55.3768 11.104C55.8568 10.912 56.3528 10.832 56.8648 10.864C57.4408 10.864 57.8888 11.024 58.2088 11.344C58.5608 11.632 58.8168 12 58.9768 12.448C59.1368 12.864 59.2328 13.344 59.2648 13.888C59.2968 14.4 59.3288 14.896 59.3608 15.376C59.7128 14.576 60.1288 13.92 60.6088 13.408C61.1208 12.864 61.8408 12.512 62.7688 12.352C65.1368 11.904 67.0248 12.512 68.4328 14.176C69.0728 13.536 69.8888 13.008 70.8808 12.592C71.6488 12.304 72.4328 12.176 73.2328 12.208C74.0328 12.208 74.7848 12.352 75.4888 12.64C76.2248 12.928 76.8808 13.344 77.4568 13.888C78.0648 14.432 78.5448 15.088 78.8968 15.856C79.3768 16.88 79.6488 18.016 79.7128 19.264C79.7768 20.512 79.8408 21.696 79.9048 22.816ZM89.8899 15.808C89.8899 16.704 89.8899 17.712 89.8899 18.832C89.9219 19.952 89.9379 21.12 89.9379 22.336C89.9379 23.52 89.9379 24.704 89.9379 25.888C89.9379 27.04 89.9219 28.112 89.8899 29.104C89.8579 29.584 89.8099 30.112 89.7459 30.688C89.6819 31.232 89.5539 31.744 89.3619 32.224C89.1699 32.704 88.8659 33.104 88.4499 33.424C88.0659 33.712 87.5379 33.84 86.8659 33.808C85.8739 33.744 85.1539 33.312 84.7059 32.512C84.2899 31.712 84.0499 30.592 83.9859 29.152C83.9859 28.416 83.9699 27.568 83.9379 26.608C83.9379 25.648 83.9219 24.672 83.8899 23.68C83.8899 22.688 83.8899 21.728 83.8899 20.8C83.8899 19.84 83.8899 18.976 83.8899 18.208C83.8899 17.76 83.8739 17.216 83.8419 16.576C83.8419 15.936 83.8579 15.28 83.8899 14.608C83.9219 13.936 84.0019 13.296 84.1299 12.688C84.2579 12.048 84.4659 11.52 84.7539 11.104C84.9779 10.848 85.2979 10.656 85.7139 10.528C86.1299 10.368 86.5619 10.288 87.0099 10.288C87.4899 10.288 87.9379 10.368 88.3539 10.528C88.8019 10.688 89.1219 10.912 89.3139 11.2C89.4419 11.392 89.5379 11.664 89.6019 12.016C89.6659 12.368 89.7139 12.768 89.7459 13.216C89.8099 13.632 89.8419 14.08 89.8419 14.56C89.8739 15.008 89.8899 15.424 89.8899 15.808ZM88.0659 6.112C87.0739 6.368 86.2419 6.272 85.5699 5.824C84.9299 5.344 84.5299 4.64 84.3699 3.712C84.2419 3.04 84.2899 2.448 84.5139 1.936C84.7379 1.424 85.0739 1.04 85.5219 0.783998C85.9699 0.495998 86.4819 0.367998 87.0579 0.399998C87.6339 0.431997 88.2099 0.655997 88.7859 1.072C89.3299 1.456 89.7139 1.904 89.9379 2.416C90.1939 2.928 90.2739 3.424 90.1779 3.904C90.1139 4.384 89.9059 4.832 89.5539 5.248C89.2019 5.632 88.7059 5.92 88.0659 6.112ZM94.6711 16.864C94.6711 16.128 94.6551 15.344 94.6231 14.512C94.6231 13.68 94.7671 12.928 95.0551 12.256C95.3111 11.648 95.7271 11.216 96.3031 10.96C96.9111 10.672 97.5031 10.608 98.0791 10.768C98.6551 10.864 99.1031 11.04 99.4231 11.296C99.7431 11.552 99.9671 11.856 100.095 12.208C100.255 12.528 100.351 12.912 100.383 13.36C100.415 13.776 100.447 14.192 100.479 14.608C100.799 14.032 101.199 13.568 101.679 13.216C102.159 12.864 102.655 12.576 103.167 12.352C103.679 12.128 104.159 11.968 104.607 11.872C105.087 11.776 105.455 11.728 105.711 11.728C106.927 11.728 108.127 12 109.311 12.544C110.527 13.056 111.535 13.792 112.335 14.752C112.783 15.328 113.119 15.936 113.343 16.576C113.599 17.184 113.775 17.824 113.871 18.496C113.999 19.168 114.079 19.856 114.111 20.56C114.143 21.232 114.175 21.92 114.207 22.624C114.367 24.672 114.367 26.704 114.207 28.72C114.175 29.136 114.159 29.616 114.159 30.16C114.159 30.704 114.111 31.248 114.015 31.792C113.951 32.304 113.807 32.768 113.583 33.184C113.391 33.568 113.055 33.808 112.575 33.904C111.903 34.064 111.343 34.096 110.895 34C110.479 33.936 110.143 33.792 109.887 33.568C109.631 33.344 109.439 33.056 109.311 32.704C109.183 32.352 109.071 31.952 108.975 31.504C108.911 31.152 108.847 30.752 108.783 30.304C108.751 29.824 108.719 29.344 108.687 28.864C108.687 28.384 108.671 27.92 108.639 27.472C108.639 26.992 108.639 26.56 108.639 26.176C108.639 25.568 108.623 24.896 108.591 24.16C108.559 23.424 108.559 22.736 108.591 22.096C108.591 20.592 108.191 19.456 107.391 18.688C106.623 17.888 105.567 17.552 104.223 17.68C103.199 17.808 102.303 18.224 101.535 18.928C100.767 19.6 100.399 20.48 100.431 21.568C100.431 21.984 100.431 22.368 100.431 22.72C100.431 23.072 100.415 23.424 100.383 23.776C100.383 24.128 100.383 24.512 100.383 24.928C100.383 25.344 100.383 25.808 100.383 26.32C100.383 27.376 100.383 28.496 100.383 29.68C100.383 30.832 100.239 31.776 99.9511 32.512C99.6951 33.28 99.2631 33.808 98.6551 34.096C98.0471 34.384 97.3271 34.304 96.4951 33.856C96.1431 33.664 95.8551 33.408 95.6311 33.088C95.4391 32.736 95.2791 32.368 95.1511 31.984C95.0551 31.6 94.9911 31.216 94.9591 30.832C94.9271 30.416 94.8951 30.032 94.8631 29.68C94.7671 28.624 94.7031 27.648 94.6711 26.752C94.6711 25.824 94.6711 24.832 94.6711 23.776V16.864ZM124.249 15.808C124.249 16.704 124.249 17.712 124.249 18.832C124.281 19.952 124.297 21.12 124.297 22.336C124.297 23.52 124.297 24.704 124.297 25.888C124.297 27.04 124.281 28.112 124.249 29.104C124.217 29.584 124.169 30.112 124.105 30.688C124.041 31.232 123.913 31.744 123.721 32.224C123.529 32.704 123.225 33.104 122.809 33.424C122.425 33.712 121.897 33.84 121.225 33.808C120.233 33.744 119.513 33.312 119.065 32.512C118.649 31.712 118.409 30.592 118.345 29.152C118.345 28.416 118.329 27.568 118.297 26.608C118.297 25.648 118.281 24.672 118.249 23.68C118.249 22.688 118.249 21.728 118.249 20.8C118.249 19.84 118.249 18.976 118.249 18.208C118.249 17.76 118.233 17.216 118.201 16.576C118.201 15.936 118.217 15.28 118.249 14.608C118.281 13.936 118.361 13.296 118.489 12.688C118.617 12.048 118.825 11.52 119.113 11.104C119.337 10.848 119.657 10.656 120.073 10.528C120.489 10.368 120.921 10.288 121.369 10.288C121.849 10.288 122.297 10.368 122.713 10.528C123.161 10.688 123.481 10.912 123.673 11.2C123.801 11.392 123.897 11.664 123.961 12.016C124.025 12.368 124.073 12.768 124.105 13.216C124.169 13.632 124.201 14.08 124.201 14.56C124.233 15.008 124.249 15.424 124.249 15.808ZM122.425 6.112C121.433 6.368 120.601 6.272 119.929 5.824C119.289 5.344 118.889 4.64 118.729 3.712C118.601 3.04 118.649 2.448 118.873 1.936C119.097 1.424 119.433 1.04 119.881 0.783998C120.329 0.495998 120.841 0.367998 121.417 0.399998C121.993 0.431997 122.569 0.655997 123.145 1.072C123.689 1.456 124.073 1.904 124.297 2.416C124.553 2.928 124.633 3.424 124.537 3.904C124.473 4.384 124.265 4.832 123.913 5.248C123.561 5.632 123.065 5.92 122.425 6.112ZM146.323 15.52C146.579 15.968 146.707 16.448 146.707 16.96C146.739 17.472 146.627 17.952 146.371 18.4C146.083 18.976 145.667 19.376 145.123 19.6C144.611 19.792 144.035 19.808 143.395 19.648C143.107 19.584 142.851 19.472 142.627 19.312C142.403 19.152 142.163 18.992 141.907 18.832C141.683 18.64 141.411 18.464 141.091 18.304C140.803 18.144 140.419 18.032 139.939 17.968C139.459 17.904 138.931 17.904 138.355 17.968C137.811 18.032 137.315 18.16 136.867 18.352C136.163 18.704 135.603 19.248 135.187 19.984C134.771 20.688 134.499 21.456 134.371 22.288C134.243 23.088 134.259 23.904 134.419 24.736C134.611 25.568 134.963 26.272 135.475 26.848C135.859 27.296 136.355 27.664 136.963 27.952C137.603 28.24 138.211 28.416 138.787 28.48C139.331 28.544 139.875 28.544 140.419 28.48C140.963 28.384 141.491 28.256 142.003 28.096C142.387 27.936 142.819 27.728 143.299 27.472C143.779 27.184 144.243 27.008 144.691 26.944C145.267 26.944 145.715 27.104 146.035 27.424C146.355 27.712 146.579 28.08 146.707 28.528C146.835 28.944 146.851 29.392 146.755 29.872C146.691 30.352 146.515 30.768 146.227 31.12C145.843 31.6 145.299 32.064 144.595 32.512C143.891 32.928 143.219 33.232 142.579 33.424C141.811 33.68 140.947 33.824 139.987 33.856C139.059 33.888 138.179 33.856 137.347 33.76C136.963 33.696 136.563 33.616 136.147 33.52C135.731 33.424 135.331 33.312 134.947 33.184C133.539 32.672 132.355 31.952 131.395 31.024C130.467 30.064 129.747 28.992 129.235 27.808C128.755 26.624 128.483 25.36 128.419 24.016C128.355 22.672 128.515 21.344 128.899 20.032C129.251 18.784 129.683 17.728 130.195 16.864C130.739 16 131.363 15.296 132.067 14.752C132.803 14.176 133.619 13.728 134.515 13.408C135.411 13.056 136.403 12.752 137.491 12.496C138.611 12.272 139.795 12.272 141.043 12.496C142.291 12.72 143.411 13.136 144.403 13.744C145.171 14.16 145.811 14.752 146.323 15.52ZM156.831 12.304C157.887 11.792 158.991 11.424 160.143 11.2C161.295 10.976 162.431 10.928 163.551 11.056C164.703 11.184 165.807 11.488 166.863 11.968C167.951 12.448 168.943 13.12 169.839 13.984C170.575 14.72 171.215 15.616 171.759 16.672C172.303 17.696 172.703 18.704 172.959 19.696C173.503 21.456 173.583 23.232 173.199 25.024C172.815 26.816 172.159 28.48 171.231 30.016C170.783 30.72 170.223 31.36 169.551 31.936C168.911 32.48 168.223 32.928 167.487 33.28C166.527 33.728 165.487 34.032 164.367 34.192C163.247 34.384 162.159 34.432 161.103 34.336C159.183 34.24 157.487 33.76 156.015 32.896C154.575 32.032 153.407 30.928 152.511 29.584C151.647 28.24 151.071 26.72 150.783 25.024C150.527 23.296 150.639 21.536 151.119 19.744C151.631 17.824 152.367 16.272 153.327 15.088C154.319 13.872 155.487 12.944 156.831 12.304ZM158.271 18.736C157.791 19.184 157.423 19.744 157.167 20.416C156.911 21.088 156.751 21.792 156.687 22.528C156.623 23.232 156.671 23.952 156.831 24.688C157.023 25.392 157.311 26.032 157.695 26.608C158.015 27.088 158.591 27.488 159.423 27.808C160.255 28.128 161.119 28.32 162.015 28.384C163.039 28.448 163.935 28.176 164.703 27.568C165.471 26.928 166.047 26.144 166.431 25.216C166.847 24.288 167.039 23.28 167.007 22.192C166.975 21.104 166.687 20.112 166.143 19.216C165.759 18.576 165.215 18.112 164.511 17.824C163.839 17.504 163.119 17.344 162.351 17.344C161.615 17.312 160.879 17.424 160.143 17.68C159.407 17.904 158.783 18.256 158.271 18.736Z" fill="#441AFF"/>
</svg>
